<?xml version="1.0" standalone="no"?>
<!DOCTYPE svg PUBLIC "-//W3C//DTD SVG 20010904//EN"
 "http://www.w3.org/TR/2001/REC-SVG-20010904/DTD/svg10.dtd">
<svg version="1.0" xmlns="http://www.w3.org/2000/svg"
 width="512.000000pt" height="512.000000pt" viewBox="0 0 512.000000 512.000000"
 preserveAspectRatio="xMidYMid meet">
<metadata>
Created by potrace 1.11, written by Peter Selinger 2001-2013
</metadata>
<g transform="translate(0.000000,512.000000) scale(0.100000,-0.100000)"
fill="#000000" stroke="none">
<path d="M1138 5093 c-12 -21 -38 -123 -38 -150 0 -2 -13 -11 -30 -21 -23 -15
-44 -18 -94 -15 -55 4 -67 1 -90 -19 -34 -29 -39 -72 -13 -124 24 -50 18 -85
-20 -117 -65 -55 -65 -56 -34 -96 16 -20 59 -64 95 -99 l66 -62 0 -1281 0
-1281 -26 5 c-40 7 -64 -23 -64 -80 -3 -373 0 -1218 5 -1251 9 -67 44 -161 87
-229 70 -111 174 -192 318 -247 54 -20 72 -21 850 -24 829 -3 855 -2 967 40
172 64 320 241 359 428 8 41 18 78 22 81 4 4 25 12 47 19 22 7 54 18 70 26 17
7 113 45 215 84 102 40 199 78 215 85 17 7 85 34 153 60 67 27 119 52 115 56
-5 4 -51 24 -103 44 -264 103 -378 147 -405 159 -16 8 -47 19 -68 26 -21 6
-37 16 -35 20 2 5 78 86 171 180 92 95 165 175 162 180 -2 4 -28 10 -57 14
-62 7 -85 11 -238 36 -63 11 -137 22 -165 25 -90 11 -85 3 -85 125 0 128 -12
149 -77 141 -7 -1 -13 2 -14 6 0 4 -2 403 -2 885 l-2 877 33 6 c18 3 41 4 51
0 13 -4 43 19 109 83 51 48 92 93 92 98 0 6 -20 29 -45 52 -36 33 -45 47 -45
74 0 19 7 44 16 56 23 33 26 69 9 102 -17 33 -40 42 -123 44 -31 1 -67 7 -78
14 -25 13 -44 60 -44 106 0 46 -35 98 -63 94 -17 -2 -29 8 -55 51 -58 96 -144
185 -263 274 -84 63 -223 126 -369 167 -95 27 -93 26 -165 35 -32 3 -62 8 -66
10 -7 5 -306 17 -454 19 l-89 1 -20 38 c-31 60 -89 66 -141 16 -40 -37 -55
-37 -55 2 0 36 -19 108 -33 126 -15 20 -77 34 -98 22 -10 -5 -37 -27 -59 -49
-35 -34 -47 -40 -84 -40 -39 0 -48 5 -87 46 -41 42 -86 74 -106 74 -5 0 -16
-12 -25 -27z"/>
</g>
</svg>
